<?xml version="1.0" encoding="utf-8"?>
<!-- Generator: Adobe Illustrator 26.1.0, SVG Export Plug-In . SVG Version: 6.00 Build 0)  -->
<svg version="1.1" baseProfile="tiny" xmlns="http://www.w3.org/2000/svg" xmlns:xlink="http://www.w3.org/1999/xlink" x="0px"
	 y="0px" viewBox="0 0 384 384" overflow="visible" xml:space="preserve">
<g id="Capa_2">
	<rect fill="none" width="384" height="384"/>
</g>
<g id="Capa_1">
	<g>
		<path fill="none" d="M384,384c-127.97,0-255.95,0-384,0C0,256.06,0,128.09,0,0c127.95,0,255.97,0,384,0
			C384,127.93,384,255.95,384,384z M333.18,182.9c-1.28-1.82-1.91-2.83-2.66-3.77c-5.53-6.94-11.12-13.83-16.57-20.83
			c-1.2-1.53-2.2-3.34-2.82-5.18c-6.98-20.68-13.8-41.43-20.82-62.1c-5.35-15.74-18.37-25.09-34.88-25.1
			c-42.37-0.05-84.75-0.05-127.12,0c-16.25,0.02-29.35,9.49-34.66,24.91c-3.08,8.97-6.17,17.94-8.98,26.99
			c-6.8,21.95-13.24,43.98-30.63,60.65c-4.67,4.48-6.18,10.65-6.14,17.19c0.09,18.13,0.02,36.26,0.04,54.38
			c0.01,12.69,7.28,19.92,20.06,19.93c25.87,0.01,51.75-0.05,77.62,0.08c3.15,0.02,5.61-0.61,7.44-3.18
			c1.78-2.5,4.19-2.98,7.16-2.96c21.5,0.12,43,0.02,64.5,0.14c1.67,0.01,4.03,0.58,4.89,1.75c3.57,4.89,8.32,4.55,12.84,3.99
			c-0.83-8.1-2.17-16-2.35-23.93c-0.37-16.24-0.12-32.5-0.11-48.76c0-5.38,1.06-6.82,6.17-8.27c15.96-4.55,31.96-8.97,47.87-13.69
			c4.14-1.23,7.9-1.32,12.03-0.03C314.69,177.84,323.47,180.15,333.18,182.9z M252.07,199.63c0,17.35-0.58,34.36,0.13,51.32
			c1.12,26.66,20.39,51.71,45.36,60.19c1.29,0.44,2.97,0.54,4.25,0.11c26.27-8.71,45.56-34.66,46.09-62.36
			c0.3-15.37,0.03-30.74,0.15-46.11c0.02-2.32-0.78-3.24-2.93-3.84c-14.4-4.06-28.77-8.26-43.16-12.36
			c-1.02-0.29-2.24-0.46-3.23-0.18C283.23,190.73,267.77,195.16,252.07,199.63z M119.91,282.26c-18.22,0-36,0-53.95,0
			c0,8.38-0.19,16.49,0.06,24.6c0.19,6.12,5.34,11,11.56,11.09c10.24,0.16,20.49,0.16,30.73,0c6.23-0.1,11.34-4.96,11.53-11.11
			C120.1,298.73,119.91,290.62,119.91,282.26z M50.91,155.92c2.25,0,4.5,0.1,6.74-0.02c8.05-0.41,14.26-6.96,14.27-14.95
			c0.01-8-6.2-14.63-14.24-14.97c-4.48-0.19-8.99-0.18-13.47,0c-8.04,0.32-14.26,6.93-14.27,14.93c-0.01,8,6.19,14.56,14.23,14.99
			C46.42,156.02,48.67,155.92,50.91,155.92z M332.96,155.92c2.25,0,4.5,0.1,6.74-0.02c8.05-0.41,14.27-6.95,14.28-14.94
			c0.01-7.99-6.2-14.64-14.23-14.98c-4.48-0.19-8.99-0.18-13.47,0c-8.05,0.32-14.27,6.92-14.28,14.92c-0.01,8,6.18,14.57,14.23,15
			C328.46,156.02,330.71,155.92,332.96,155.92z"/>
		<path fill="#FFFFFF" d="M333.18,182.9c-9.71-2.76-18.49-5.07-27.14-7.78c-4.13-1.3-7.9-1.2-12.03,0.03
			c-15.91,4.72-31.91,9.14-47.87,13.69c-5.1,1.45-6.16,2.89-6.17,8.27c-0.01,16.25-0.26,32.51,0.11,48.76
			c0.18,7.93,1.52,15.83,2.35,23.93c-4.52,0.55-9.27,0.9-12.84-3.99c-0.86-1.17-3.22-1.74-4.89-1.75c-21.5-0.11-43-0.02-64.5-0.14
			c-2.97-0.02-5.38,0.46-7.16,2.96c-1.83,2.57-4.29,3.19-7.44,3.18c-25.87-0.13-51.75-0.07-77.62-0.08
			c-12.77,0-20.05-7.23-20.06-19.93c-0.01-18.13,0.06-36.26-0.04-54.38c-0.03-6.54,1.47-12.71,6.14-17.19
			c17.39-16.67,23.83-38.7,30.63-60.65c2.81-9.06,5.89-18.03,8.98-26.99c5.3-15.42,18.41-24.89,34.66-24.91
			c42.37-0.05,84.75-0.05,127.12,0c16.5,0.02,29.53,9.36,34.88,25.1c7.02,20.67,13.83,41.41,20.82,62.1
			c0.62,1.84,1.63,3.65,2.82,5.18c5.45,7,11.05,13.89,16.57,20.83C331.26,180.07,331.9,181.09,333.18,182.9z M192.08,173.95
			c25.49,0,50.98,0.02,76.47-0.01c14.34-0.01,22.02-10.86,17.13-24.28c-6.19-17-12.47-33.96-18.76-50.92
			c-2.27-6.13-6.22-8.81-12.87-8.82c-41.36-0.02-82.72-0.01-124.08,0c-6.9,0-10.64,2.6-13.04,9.08
			c-6.28,16.96-12.54,33.94-18.75,50.93c-0.68,1.86-1.3,3.82-1.45,5.77c-0.82,10.36,6.78,18.2,17.75,18.22
			C140.35,173.99,166.21,173.94,192.08,173.95z M192.29,209.96c-10.99,0-21.98-0.01-32.98,0c-6.83,0.01-8.98,2.69-7.62,9.45
			c0.94,4.65,1.87,9.29,2.8,13.94c1,5.04,2.81,6.6,7.87,6.6c19.74,0.02,39.47,0.02,59.21,0c4.75,0,6.63-1.46,7.63-5.98
			c1.13-5.12,2.21-10.25,3.18-15.39c1.1-5.82-1.22-8.6-7.1-8.62C214.27,209.94,203.28,209.96,192.29,209.96z M102.06,239.97
			c5.75,0,11.49,0.05,17.24-0.01c7.66-0.08,12.54-5.04,12.65-12.75c0.03-2,0.04-4,0-6c-0.13-6.93-4.06-11.51-10.88-12.65
			c-2.83-0.47-5.67-0.9-8.52-1.24c-9.4-1.14-18.78-2.62-28.22-3.23c-7.23-0.47-12.23,4.9-12.38,12.12
			c-0.08,3.75-0.06,7.5-0.01,11.24c0.11,7.42,5.08,12.42,12.5,12.51C90.32,240.03,96.19,239.97,102.06,239.97z"/>
		<path fill="#FFFFFF" d="M252.07,199.63c15.7-4.47,31.17-8.9,46.66-13.24c0.99-0.28,2.21-0.11,3.23,0.18
			c14.39,4.1,28.76,8.3,43.16,12.36c2.15,0.61,2.95,1.52,2.93,3.84c-0.12,15.37,0.15,30.75-0.15,46.11
			c-0.53,27.7-19.82,53.65-46.09,62.36c-1.27,0.42-2.95,0.32-4.25-0.11c-24.97-8.48-44.24-33.53-45.36-60.19
			C251.49,233.99,252.07,216.98,252.07,199.63z M294.3,255.14c-3.84-3.69-7.24-6.99-10.69-10.25c-2.77-2.62-6.26-2.8-8.71-0.5
			c-2.62,2.45-2.64,6.01,0.2,8.94c4.69,4.84,9.46,9.61,14.3,14.3c2.98,2.88,6.05,3.02,8.94,0.19c10.07-9.88,20.05-19.86,29.98-29.87
			c2.37-2.39,2.23-5.2,0.21-7.8c-1.93-2.49-5.4-2.9-8.06-1c-1.01,0.72-1.85,1.67-2.73,2.55
			C309.91,239.52,302.07,247.36,294.3,255.14z"/>
		<path fill="#FFFFFF" d="M119.91,282.26c0,8.36,0.19,16.48-0.06,24.58c-0.19,6.15-5.3,11.01-11.53,11.11
			c-10.24,0.16-20.49,0.16-30.73,0c-6.22-0.1-11.37-4.97-11.56-11.09c-0.25-8.1-0.06-16.22-0.06-24.6
			C83.91,282.26,101.69,282.26,119.91,282.26z"/>
		<path fill="#FFFFFF" d="M50.91,155.92c-2.25,0-4.5,0.1-6.74-0.02c-8.04-0.42-14.24-6.99-14.23-14.99
			c0.01-8,6.23-14.61,14.27-14.93c4.48-0.18,8.99-0.19,13.47,0c8.03,0.34,14.25,6.97,14.24,14.97c-0.01,7.99-6.23,14.54-14.27,14.95
			C55.41,156.01,53.16,155.92,50.91,155.92z"/>
		<path fill="#FFFFFF" d="M332.96,155.92c-2.25,0-4.5,0.1-6.74-0.02c-8.04-0.43-14.24-7-14.23-15c0.01-8,6.23-14.6,14.28-14.92
			c4.49-0.18,8.99-0.19,13.47,0c8.03,0.34,14.24,6.98,14.23,14.98c-0.01,7.99-6.23,14.54-14.28,14.94
			C337.46,156.01,335.21,155.92,332.96,155.92z"/>
		<path fill="none" d="M192.08,173.95c-25.87,0-51.73,0.04-77.6-0.02c-10.98-0.03-18.57-7.86-17.75-18.22
			c0.15-1.95,0.78-3.92,1.45-5.77c6.21-16.99,12.47-33.96,18.75-50.93c2.4-6.48,6.14-9.08,13.04-9.08
			c41.36-0.01,82.72-0.01,124.08,0c6.65,0,10.59,2.69,12.87,8.82c6.29,16.96,12.58,33.92,18.76,50.92
			c4.89,13.43-2.8,24.27-17.13,24.28C243.06,173.96,217.57,173.95,192.08,173.95z"/>
		<path fill="none" d="M192.29,209.96c10.99,0,21.98-0.02,32.98,0.01c5.89,0.02,8.2,2.8,7.1,8.62c-0.97,5.15-2.05,10.28-3.18,15.39
			c-1,4.52-2.88,5.98-7.63,5.98c-19.74,0.02-39.47,0.02-59.21,0c-5.06,0-6.86-1.56-7.87-6.6c-0.92-4.65-1.86-9.3-2.8-13.94
			c-1.36-6.76,0.79-9.45,7.62-9.45C170.3,209.95,181.3,209.96,192.29,209.96z"/>
		<path fill="none" d="M102.06,239.97c-5.87,0-11.74,0.06-17.61-0.01c-7.42-0.09-12.39-5.09-12.5-12.51
			c-0.05-3.75-0.07-7.5,0.01-11.24c0.15-7.22,5.14-12.58,12.38-12.12c9.44,0.61,18.82,2.09,28.22,3.23
			c2.85,0.35,5.69,0.77,8.52,1.24c6.82,1.14,10.74,5.72,10.88,12.65c0.04,2,0.03,4,0,6c-0.11,7.71-4.99,12.67-12.65,12.75
			C113.55,240.02,107.8,239.97,102.06,239.97z"/>
		<path fill="none" d="M294.3,255.14c7.77-7.78,15.61-15.62,23.45-23.45c0.88-0.88,1.73-1.83,2.73-2.55c2.67-1.9,6.13-1.49,8.06,1
			c2.02,2.6,2.16,5.41-0.21,7.8c-9.93,10.02-19.91,19.99-29.98,29.87c-2.89,2.84-5.97,2.7-8.94-0.19c-4.84-4.69-9.61-9.46-14.3-14.3
			c-2.84-2.93-2.82-6.49-0.2-8.94c2.45-2.29,5.94-2.12,8.71,0.5C287.06,248.15,290.46,251.45,294.3,255.14z"/>
	</g>
</g>
</svg>
